<?xml version="1.0" encoding="UTF-8"?><svg id="_レイヤー_1" xmlns="http://www.w3.org/2000/svg" viewBox="0 0 361.82 51.09"><defs><style>.cls-1{fill:#040000;}</style></defs><path class="cls-1" d="m35,38.2c.78,0,1.79.08,3.05.23,1.88.16,3.75.78,5.62,1.88,1.41.94,2.11,2.03,2.11,3.28l-.47.94c-.31.31-.94.55-1.88.7-1.88,0-3.67-.15-5.39-.47-2.19-.47-4.14-.94-5.86-1.41-2.34-.62-5.08-.86-8.2-.7-4.69.31-9.46,1.17-14.3,2.58-3.6.16-6.72-.94-9.38-3.28-.31-.62-.39-1.01-.23-1.17,2.66-.31,6.64-.94,11.95-1.88,5.16-.94,10.31-1.33,15.47-1.17,3.28.31,5.78.47,7.5.47Zm-1.17-13.59c.47.63.15,1.17-.94,1.64l-5.86,1.17c-5,.47-9.14,1.49-12.42,3.05-1.72.78-2.89,1.33-3.52,1.64.94-.78,1.95-1.95,3.05-3.52.31-.47.47-.78.47-.94l-4.45-3.05-.7-1.17c0-.47.23-.62.7-.47l3.05.23c5.31-.62,10.16-1.25,14.53-1.88,2.5-.31,4.53.78,6.09,3.28Zm-.47-17.11l1.64,1.17c.78.63.62,1.33-.47,2.11-.47.47-1.72.86-3.75,1.17-5,.63-9.46,1.88-13.36,3.75.62-.94,1.33-1.79,2.11-2.58-.94-.47-2.42-.86-4.45-1.17-2.03-.31-3.52-1.01-4.45-2.11-.63-.78-.86-1.33-.7-1.64l3.52-.23c6.72-.47,11.95-1.25,15.7-2.34.78-.15,2.19.47,4.22,1.88Z"/><path class="cls-1" d="m97.77,1.88c1.09.16,2.26.78,3.52,1.88.47.47.7,1.17.7,2.11v.47c-.16,1.88-.31,4.92-.47,9.14l-.47.94,2.11-1.64c2.66-2.03,4.14-3.52,4.45-4.45l.23-.7c-1.41-1.41-2.11-2.26-2.11-2.58h2.34c.94,0,1.95.16,3.05.47.94.31,1.95.94,3.05,1.88,1.41,1.09.94,2.42-1.41,3.98l-2.58,1.41c-1.56.94-2.97,2.03-4.22,3.28.94.47,1.95,1.09,3.05,1.88.31.31.31.63,0,.94-.47.78-1.09,1.41-1.88,1.88-1.25,1.09-2.5,2.11-3.75,3.05l.94.23c.78.16,1.79.86,3.05,2.11-3.91,5.94-5.86,9.77-5.86,11.48,0,1.41.55,2.58,1.64,3.52.94.78,2.97,1.17,6.09,1.17,6.72.16,10.08-2.5,10.08-7.97,0-1.56-.23-2.58-.7-3.05-.78-.78-.7-.94.23-.47,4.37,3.75,6.8,7.11,7.27,10.08l-.23,1.64c-1.56,2.34-3.28,3.83-5.16,4.45-2.03.62-4.3.94-6.8.94-5.78,0-10.08-.78-12.89-2.34s-4.38-3.98-4.69-7.27c.15-2.97,1.09-5.47,2.81-7.5,1.41-1.72,2.34-3.36,2.81-4.92l-.23-.47-3.98,3.05c-5.16,4.53-8.91,7.89-11.25,10.08-2.19,2.03-5,4.3-8.44,6.8-1.25-1.25-2.19-2.26-2.81-3.05-.47-.94-.47-1.64,0-2.11,1.25-1.09,2.42-1.33,3.52-.7,1.25,0,3.9-1.64,7.97-4.92,4.06-3.59,6.95-6.72,8.67-9.38-2.5,1.09-4.22,1.8-5.16,2.11-2.34.78-3.67,1.17-3.98,1.17l-2.34-.23c-1.25-.47-2.27-1.33-3.05-2.58-.31-.47-.47-1.25-.47-2.34.15-.62,1.17-.94,3.05-.94,2.34.31,6.33-1.25,11.95-4.69-.63-.47-2.27-2.26-4.92-5.39l-2.34,1.88c-1.41,1.09-2.27,1.56-2.58,1.41-1.56-.78-2.66-2.26-3.28-4.45-.47-2.19.15-2.89,1.88-2.11,1.41.47,2.42.94,3.05,1.41,1.09.47,1.95.63,2.58.47l4.69-2.34c-1.41,1.72-2.58,2.81-3.52,3.28.62.31,1.72.47,3.28.47.47,0,.94.08,1.41.23.15-1.25.39-2.66.7-4.22v-3.52c0-1.09-.47-1.88-1.41-2.34s-1.96-.78-3.05-.94v-.23c2.19-1.09,3.59-1.64,4.22-1.64.31,0,.86.08,1.64.23Zm-12.66,23.67c1.56-.31,2.73-.55,3.52-.7.62-.47,1.56-.94,2.81-1.41-4.22.31-6.33,1.02-6.33,2.11Z"/><path class="cls-1" d="m175.3,6.09c1.41.31,1.41,1.41,0,3.28-1.25,1.56-2.34,2.89-3.28,3.98l3.98-.23c2.81.16,5.23,1.25,7.27,3.28,1.72,1.72,1.41,2.81-.94,3.28-1.88-.15-4.22-1.64-7.03-4.45-1.41-.94-2.74-1.41-3.98-1.41-1.25,1.41-2.27,2.5-3.05,3.28-1.72,1.72-2.74,2.66-3.05,2.81.31.31,1.01.47,2.11.47,1.72-.15,4.14-.55,7.27-1.17,1.56-.15,2.58.31,3.05,1.41l-.7,1.17c-.94.78-2.03,1.17-3.28,1.17,0,1.09-.08,2.03-.23,2.81l1.88-.23c2.5,0,4.37.55,5.62,1.64.31.47.23,1.02-.23,1.64-1.25,2.34-2.27,3.98-3.05,4.92-.78.47-2.89,1.17-6.33,2.11-1.25,3.28-3.44,5.86-6.56,7.73-2.5,1.56-5.47,2.03-8.91,1.41,4.06-1.25,7.73-3.83,11.02-7.73l-1.88-.23c-4.38-2.97-6.41-6.01-6.09-9.14.78-1.09,1.79-1.79,3.05-2.11l-1.88,2.58c1.25.31,2.19.86,2.81,1.64,1.56-1.41,3.75-2.58,6.56-3.52l.23-3.05c-1.88-.15-3.28-.78-4.22-1.88l-.94-.7c-3.44,2.97-6.41,4.84-8.91,5.62-1.88.47-2.89.08-3.05-1.17,0-1.09.31-2.58.94-4.45l.23-.23c.47,1.09,1.01,1.8,1.64,2.11,3.28-2.97,6.17-5.62,8.67-7.97,2.34-2.5,4.14-4.69,5.39-6.56l-.23-.7c-.31-.31-.86-.7-1.64-1.17l.23-.47c.47-.62,1.17-.94,2.11-.94.78-.15,1.64-.23,2.58-.23s1.88.47,2.81,1.41Zm-9.14,27.42c.62,0,1.25-.08,1.88-.23.31-.94.55-2.03.7-3.28-1.25.16-2.42.7-3.52,1.64.31.47.62,1.09.94,1.88Zm15,10.08c-.31,1.09-1.02,1.64-2.11,1.64-1.72,0-3.6-1.56-5.62-4.69-.78-.78-1.33-1.41-1.64-1.88.78-.31,1.88-.47,3.28-.47,2.81-.15,4.84,1.64,6.09,5.39Zm-8.67-11.48c1.09-.78,1.95-1.95,2.58-3.52l-1.88.23-.7,3.28Zm17.58-13.59c0,1.88-.08,3.83-.23,5.86-.16,1.88-.31,3.75-.47,5.62-.16.94-.63,1.41-1.41,1.41-2.66-.47-3.91-1.56-3.75-3.28.15-1.72.31-3.05.47-3.98.15-.94.23-1.88.23-2.81v-1.41c0-.94.08-1.48.23-1.64,1.41,1.09,2.5,1.8,3.28,2.11,0-.31.15-.62.47-.94.15-.47.39-.94.7-1.41.62-.31.78-.15.47.47Zm8.67-10.55c1.09.31,2.19,1.17,3.28,2.58,0,.47-.08.86-.23,1.17-1.09,1.72-1.8,5.47-2.11,11.25-.16,2.66-.23,5.39-.23,8.2.15,2.03.55,5.55,1.17,10.55.15,1.09.23,2.11.23,3.05,0,1.41-.31,2.58-.94,3.52-.63.94-1.49,1.72-2.58,2.34-2.66-.16-5-1.25-7.03-3.28l-4.22-4.22c-.94-.94-1.09-1.41-.47-1.41,1.88.94,3.28,1.56,4.22,1.88.94.31,2.42.47,4.45.47.62-.78,1.01-1.41,1.17-1.88l-.23-2.34-.23-10.55c-.16-5.16.15-11.02.94-17.58-.31-.78-1.09-.94-2.34-.47-1.25.63-1.56.31-.94-.94,1.09-1.88,2.19-2.81,3.28-2.81.62,0,1.56.16,2.81.47Z"/><path class="cls-1" d="m258.45.23c.62,0,1.33.31,2.11.94.78.78,1.09,1.41.94,1.88l-1.41,5.39c.47.16.94.39,1.41.7,4.37,1.25,7.03,2.34,7.97,3.28.31.31.23.86-.23,1.64-2.34,1.88-4.14,3.05-5.39,3.52-3.28,1.25-6.09,2.19-8.44,2.81-.47,1.25-1.25,2.81-2.34,4.69,4.22-2.03,7.42-3.12,9.61-3.28.62,0,1.48.31,2.58.94,1.09.63,1.64,1.64,1.64,3.05,0,2.34-.23,4.22-.7,5.62-.31.94-1.25,2.89-2.81,5.86.31.47,1.41,1.49,3.28,3.05,1.88,1.56,6.25,4.14,13.12,7.73,2.19,1.09,1.95,2.11-.7,3.05-3.44-.16-6.41-.78-8.91-1.88-2.66-1.09-6.02-4.06-10.08-8.91l-1.88,1.17c-3.91,2.03-7.11,3.05-9.61,3.05-3.91-.15-6.49-.78-7.73-1.88.31-.15,1.01-.23,2.11-.23h.94c.78,0,2.58-.47,5.39-1.41,2.34-.94,4.45-2.34,6.33-4.22-1.72-1.25-3.05-2.11-3.98-2.58-1.09-.47-2.5-.86-4.22-1.17-5.31,5.94-8.91,9.46-10.78,10.55-2.34,1.41-4.69,2.11-7.03,2.11-.78,0-1.33-.08-1.64-.23,4.69-2.81,7.89-5.08,9.61-6.8,1.41-1.72,3.2-3.98,5.39-6.8l-1.41-.47,1.88-.7c.47-.62,1.17-1.64,2.11-3.05,1.09-1.72,2.34-3.75,3.75-6.09-2.97.31-6.25-.55-9.84-2.58-1.25-.78-1.88-1.33-1.88-1.64,2.66,0,4.76.08,6.33.23,3.28,0,5.78-.47,7.5-1.41.47-.78.94-1.95,1.41-3.52,1.09-4.22,1.64-6.87,1.64-7.97,0-.47-.39-1.41-1.17-2.81.62-1.25,1.48-1.88,2.58-1.88.94,0,1.79.08,2.58.23Zm-8.44,30c2.5.78,5.23,2.03,8.2,3.75,1.25-1.25,2.19-3.44,2.81-6.56l-.23-1.17c-3.91.94-7.5,2.27-10.78,3.98Zm7.97-16.17c1.56-.78,2.66-1.48,3.28-2.11-.47-.78-1.09-1.41-1.88-1.88l-1.41,3.98Z"/><path class="cls-1" d="m339.27,6.33l-1.64,2.11,3.75,3.52c2.19,2.03,3.98,4.06,5.39,6.09,1.88,2.66,3.98,4.61,6.33,5.86,6.25,2.97,9.14,5.55,8.67,7.73-.16.31-.78.47-1.88.47-2.81,0-5.39-.7-7.73-2.11-2.5-1.56-4.84-3.98-7.03-7.27-2.81-4.22-4.61-6.8-5.39-7.73-1.41-1.72-2.97-3.12-4.69-4.22-1.09,1.09-2.74,2.66-4.92,4.69-2.34,2.34-5.24,4.92-8.67,7.73-3.28,2.66-7.11,5-11.48,7.03-1.09-1.09-1.72-1.88-1.88-2.34-.31-.62-.47-1.41-.47-2.34s.39-1.56,1.17-1.88h.23c.78.78,1.64,1.17,2.58,1.17,5.16-3.28,9.38-6.48,12.66-9.61,3.28-3.12,5.94-5.78,7.97-7.97-.47-.78-1.02-1.17-1.64-1.17s-.47-.47.47-1.41c.94-.78,2.26-1.17,3.98-1.17,2.03,0,3.44.94,4.22,2.81Zm3.28,24.84c.15.31-.55.78-2.11,1.41-4.84,2.34-8.59,5-11.25,7.97,5.31-.15,8.91-.62,10.78-1.41.78-.31,1.33-.86,1.64-1.64-.63-.78-.7-1.41-.23-1.88,1.41-.15,2.89.47,4.45,1.88,2.34,2.03,3.9,3.91,4.69,5.62,0,.78-.55,1.41-1.64,1.88-1.41.63-2.74.94-3.98.94-.78,0-1.56-.47-2.34-1.41,1.56-.47,2.42-1.25,2.58-2.34,0-.94-.55-1.64-1.64-2.11-.78,1.41-2.5,2.42-5.16,3.05-1.56.31-3.44.7-5.62,1.17-3.91,1.09-6.88,1.8-8.91,2.11-2.5.16-3.75-.86-3.75-3.05s.7-3.59,2.11-4.22c1.72-.31,3.2-1.09,4.45-2.34-3.13-.94-5.39-2.26-6.8-3.98-.16-.47-.16-.7,0-.7.94.47,1.72.78,2.34.94,5-.47,9.53-1.64,13.59-3.52.62-.62,1.72-.94,3.28-.94,1.72,0,2.89.86,3.52,2.58Zm-5.39-9.84c1.25.31,2.26.94,3.05,1.88.47.47.31,1.02-.47,1.64-1.56,1.25-3.44,2.03-5.62,2.34-1.09,0-2.03-.15-2.81-.47-.78-.31-2.19-1.01-4.22-2.11-.94-.47-1.02-.86-.23-1.17l1.64-.47c3.44-.94,5.78-1.48,7.03-1.64h1.64Z"/></svg>